<?xml version="1.0" encoding="UTF-8" standalone="no"?>
<svg
   xmlns:dc="http://purl.org/dc/elements/1.1/"
   xmlns:cc="http://creativecommons.org/ns#"
   xmlns:rdf="http://www.w3.org/1999/02/22-rdf-syntax-ns#"
   xmlns:svg="http://www.w3.org/2000/svg"
   xmlns="http://www.w3.org/2000/svg"
   xmlns:sodipodi="http://sodipodi.sourceforge.net/DTD/sodipodi-0.dtd"
   xmlns:inkscape="http://www.inkscape.org/namespaces/inkscape"
   height="600"
   width="900"
   version="1.1"
   id="svg22"
   sodipodi:docname="FIVB flag.svg"
   inkscape:version="0.92.3 (2405546, 2018-03-11)">
  <metadata
     id="metadata28">
    <rdf:RDF>
      <cc:Work
         rdf:about="">
        <dc:format>image/svg+xml</dc:format>
        <dc:type
           rdf:resource="http://purl.org/dc/dcmitype/StillImage" />
        <dc:title></dc:title>
      </cc:Work>
    </rdf:RDF>
  </metadata>
  <defs
     id="defs26" />
  <sodipodi:namedview
     pagecolor="#ffffff"
     bordercolor="#666666"
     borderopacity="1"
     objecttolerance="10"
     gridtolerance="10"
     guidetolerance="10"
     inkscape:pageopacity="0"
     inkscape:pageshadow="2"
     inkscape:window-width="1920"
     inkscape:window-height="1017"
     id="namedview24"
     showgrid="false"
     inkscape:zoom="0.89252589"
     inkscape:cx="258.96913"
     inkscape:cy="300"
     inkscape:window-x="-8"
     inkscape:window-y="-8"
     inkscape:window-maximized="1"
     inkscape:current-layer="svg22" />
  <rect
     style="fill:#fff"
     width="900"
     height="600"
     id="rect2" />
  <g
     id="g16"
     transform="matrix(3.498527,0,0,3.8034251,94.952326,112.71663)">
    <path
       style="fill:#005fa9"
       d="m 33.34,75.38 h 3.3 v 0.59 h -2.62 v 2.48 h 2.49 v 0.59 h -2.49 v 3.27 h -0.68 z m 5.75,-0.29 h 0.46 l 1.25,-1.43 h -0.78 z m -1.05,7.22 h 3.51 v -0.59 h -2.83 v -2.68 h 2.57 v -0.59 h -2.57 v -2.48 h 2.71 v -0.59 h -3.4 v 6.93 z m 5.79,-6.34 h 1.01 c 1.55,0 2.8,0.7 2.8,2.82 0,2.12 -1.28,2.92 -3.25,2.92 h -0.57 v -5.74 z m -0.69,6.34 h 1.21 c 2.3,0 3.97,-0.96 3.97,-3.48 0,-2.02 -0.98,-3.45 -3.47,-3.45 h -1.72 v 6.93 z m 7.94,-7.22 h 0.46 l 1.25,-1.43 H 52 Z m -1.06,7.22 h 3.51 v -0.59 h -2.82 v -2.68 h 2.57 v -0.59 h -2.57 v -2.48 h 2.71 v -0.59 h -3.4 z m 5.88,-6.34 h 0.7 c 0.94,0 1.74,0.07 1.74,1.2 0,0.96 -0.92,1.27 -1.72,1.27 H 55.9 Z m -0.7,6.34 h 0.69 v -3.27 h 0.56 c 0.65,0 0.95,0.03 1.35,0.93 l 1,2.34 h 0.76 l -1.19,-2.68 c -0.22,-0.47 -0.34,-0.77 -0.89,-0.84 v -0.02 c 0.85,-0.11 1.54,-0.7 1.54,-1.6 0,-1.27 -0.8,-1.8 -2.04,-1.8 H 55.2 Z m 9.66,-2.45 h -3.01 l 1.51,-3.83 z m -4.68,2.45 h 0.67 l 0.74,-1.86 h 3.5 l 0.75,1.86 h 0.72 l -2.75,-6.93 h -0.78 z m 8.16,0 h 0.68 v -6.34 h 2.05 V 75.38 H 66.3 v 0.59 h 2.05 v 6.34 z m 3.79,0 h 0.68 v -6.93 h -0.68 z m 2.86,-3.47 c 0,-1.47 0.73,-2.99 2.36,-2.99 1.63,0 2.36,1.52 2.36,2.99 0,1.47 -0.73,2.98 -2.36,2.98 -1.62,0.01 -2.36,-1.51 -2.36,-2.98 m 2.36,-3.58 c -2.08,0 -3.07,1.71 -3.05,3.59 0.02,2.12 1.06,3.58 3.05,3.58 2,0 3.02,-1.46 3.05,-3.58 0.02,-1.89 -0.96,-3.59 -3.05,-3.59 m 4.55,7.05 h 0.68 v -5.98 h 0.02 l 3.46,5.98 H 87 v -6.93 h -0.68 v 6.1 H 86.3 l -3.53,-6.1 H 81.9 Z m 9.78,0 h 0.69 v -6.93 h -0.69 z m 2.4,0 h 0.68 v -5.98 h 0.02 l 3.47,5.98 h 0.92 v -6.93 h -0.68 v 6.1 h -0.02 l -3.53,-6.1 h -0.87 v 6.93 z m 8.21,0 h 0.68 v -6.34 h 2.05 v -0.59 h -4.78 v 0.59 h 2.05 z m 3.87,0 h 3.51 v -0.59 h -2.83 v -2.68 h 2.57 v -0.59 h -2.57 v -2.48 h 2.71 v -0.59 h -3.4 v 6.93 z m 5.87,-6.34 h 0.7 c 0.95,0 1.75,0.07 1.75,1.2 0,0.96 -0.92,1.27 -1.72,1.27 h -0.72 v -2.47 z m -0.69,6.34 h 0.69 v -3.27 h 0.56 c 0.65,0 0.95,0.03 1.35,0.93 l 1,2.34 h 0.76 l -1.19,-2.68 c -0.22,-0.47 -0.34,-0.77 -0.89,-0.84 v -0.02 c 0.85,-0.11 1.54,-0.7 1.54,-1.6 0,-1.27 -0.8,-1.8 -2.04,-1.8 h -1.79 v 6.94 z m 5.61,0 h 0.68 v -5.98 h 0.02 l 3.47,5.98 h 0.92 v -6.93 h -0.68 v 6.1 h -0.02 l -3.53,-6.1 h -0.87 v 6.93 z m 10.87,-2.45 h -3.01 l 1.52,-3.83 z m -4.68,2.45 h 0.67 l 0.75,-1.86 h 3.5 l 0.74,1.86 h 0.72 l -2.76,-6.93 h -0.78 z m 8.16,0 h 0.68 v -6.34 h 2.05 v -0.59 h -4.78 v 0.59 h 2.05 z m 3.78,0 h 0.69 v -6.93 h -0.69 z m 2.86,-3.47 c 0,-1.47 0.74,-2.99 2.37,-2.99 1.63,0 2.36,1.52 2.36,2.99 0,1.47 -0.73,2.98 -2.36,2.98 -1.63,0.01 -2.37,-1.51 -2.37,-2.98 m 2.37,-3.58 c -2.08,0 -3.07,1.71 -3.05,3.59 0.02,2.12 1.05,3.58 3.05,3.58 2,0 3.03,-1.46 3.05,-3.58 0.02,-1.89 -0.97,-3.59 -3.05,-3.59 m 4.54,7.05 h 0.69 v -5.98 h 0.02 l 3.47,5.98 h 0.92 v -6.93 h -0.68 v 6.1 h -0.02 l -3.53,-6.1 h -0.87 z m 10.87,-2.45 h -3.01 l 1.51,-3.83 z m -4.68,2.45 h 0.67 l 0.75,-1.86 h 3.5 l 0.75,1.86 h 0.72 l -2.75,-6.93 h -0.78 z m 7.49,0 h 3.46 v -0.59 h -2.78 v -6.34 h -0.68 z m 4.67,0 h 3.51 v -0.59 h -2.83 v -2.68 h 2.57 v -0.59 h -2.57 v -2.48 h 2.71 v -0.59 h -3.4 v 6.93 z m -97.41,5.16 h 1.01 c 1.55,0 2.8,0.71 2.8,2.82 0,2.13 -1.28,2.92 -3.25,2.92 h -0.56 z m -0.68,6.33 h 1.21 c 2.3,0 3.98,-0.97 3.98,-3.48 0,-2.03 -0.99,-3.45 -3.47,-3.45 h -1.72 z m 6.88,0 h 3.52 v -0.6 h -2.84 v -2.67 h 2.57 v -0.59 h -2.57 v -2.48 h 2.71 v -0.59 h -3.4 v 6.93 z m 13.28,-6.93 h -0.68 l -2.32,6.25 -2.23,-6.25 h -0.72 l 2.58,6.93 h 0.73 z m 1.48,3.47 c 0,-1.47 0.74,-2.99 2.37,-2.99 1.63,0 2.36,1.52 2.36,2.99 0,1.47 -0.73,2.99 -2.36,2.99 -1.64,-0.01 -2.37,-1.53 -2.37,-2.99 m 2.36,-3.59 c -2.08,0 -3.07,1.71 -3.05,3.58 0.02,2.13 1.05,3.59 3.05,3.59 2,0 3.02,-1.46 3.05,-3.59 0.02,-1.87 -0.97,-3.58 -3.05,-3.58 m 4.58,7.05 h 3.46 v -0.6 h -2.78 v -6.33 h -0.68 z m 4.61,0 h 3.46 V 93.2 H 98.98 V 86.87 H 98.3 Z m 4.66,0 h 3.52 v -0.6 h -2.84 v -2.67 h 2.58 v -0.59 h -2.58 v -2.48 h 2.71 v -0.59 h -3.4 v 6.93 z m 7,0 h 0.68 v -2.94 l 2.58,-3.99 h -0.75 l -2.18,3.39 -2.11,-3.39 h -0.79 l 2.57,3.99 z m 5.07,-6.33 h 0.95 c 0.59,0 1.51,0.14 1.51,1.14 0,1.11 -0.96,1.29 -1.69,1.29 h -0.77 z m -0.01,3.03 h 0.6 c 1.01,0 2.08,0.13 2.08,1.36 0,1.1 -1.04,1.34 -1.97,1.34 h -0.71 z m -0.69,3.3 h 1.38 c 1.44,0 2.67,-0.47 2.67,-1.98 0,-0.91 -0.59,-1.49 -1.47,-1.64 v -0.02 c 0.86,-0.17 1.26,-0.7 1.26,-1.58 0,-1.33 -1.06,-1.71 -2.19,-1.71 h -1.65 z m 9.73,-2.45 h -3.01 l 1.51,-3.83 z m -4.68,2.45 h 0.67 l 0.75,-1.86 h 3.5 l 0.75,1.86 h 0.72 L 123,86.87 h -0.78 z m 7.49,0 h 3.46 v -0.6 h -2.77 v -6.33 h -0.69 z m 4.61,0 h 3.46 v -0.6 h -2.78 v -6.33 h -0.68 z"
       id="path2"
       inkscape:connector-curvature="0" />
    <path
       style="fill:#005fa9"
       d="M 167.84,44.43 V 40.8 h -1.2 v -0.48 h 2.87 v 0.48 h -1.19 v 3.63 z m 2.63,0 v -3.5 l 1.05,3.5 h 0.43 l 1.08,-3.44 v 3.44 h 0.46 v -4.11 h -0.64 l -0.89,2.85 c -0.09,0.3 -0.15,0.51 -0.2,0.66 -0.04,-0.13 -0.1,-0.33 -0.16,-0.6 l -0.89,-2.92 H 170 v 4.11 h 0.47 z"
       id="path4"
       inkscape:connector-curvature="0" />
    <path
       style="fill:#005fa9"
       d="m 100,54.32 c -35.83,0 -69.75,5.96 -100,16.6 v 0.75 C 30.92,64.2 64.66,60.08 100,60.08 c 35.34,0 69.09,4.12 100,11.59 V 70.92 C 169.76,60.29 135.84,54.32 100,54.32"
       id="path6"
       inkscape:connector-curvature="0" />
    <rect
       x="70.370003"
       y="0"
       style="fill:#005fa9"
       width="11.53"
       height="44.450001"
       id="rect8" />
    <rect
       x="33.34"
       style="fill:#005fa9"
       width="32.919998"
       height="9.8800001"
       id="rect10"
       y="0" />
    <polygon
       style="fill:#005fa9"
       points="62.96,16.46 62.96,26.34 44.86,26.34 44.86,44.45 33.34,44.45 33.34,16.46 "
       id="polygon12" />
    <path
       style="fill:#005fa9"
       d="m 162.27,21.65 c 1.66,-1.28 4.41,-4.08 4.41,-8.59 0,-8.18 -5.37,-13.05 -14.34,-13.05 h -36.4 l -8.45,28.17 h -0.13 L 98.89,0 H 86.01 v 9.88 h 4.12 l 11.54,34.57 h 11.49 L 124.69,9.88 h 26.39 c 3.54,0 4.07,2.32 4.07,3.7 0,1.38 -0.53,3.7 -4.07,3.7 h -19.8 v 9.88 h 20.3 c 3.54,0 4.07,2.32 4.07,3.7 0,1.38 -0.53,3.7 -4.07,3.7 h -20.3 v 9.88 h 21.97 c 8.52,0 14.03,-5.23 14.03,-13.3 0,-5.78 -3.08,-8.25 -5.01,-9.49"
       id="path14"
       inkscape:connector-curvature="0" />
  </g>
</svg>
