<?xml version="1.0" encoding="UTF-8" standalone="no"?>
<!-- Created with Inkscape (http://www.inkscape.org/) -->

<svg
   xmlns:dc="http://purl.org/dc/elements/1.1/"
   xmlns:cc="http://creativecommons.org/ns#"
   xmlns:rdf="http://www.w3.org/1999/02/22-rdf-syntax-ns#"
   xmlns:svg="http://www.w3.org/2000/svg"
   xmlns="http://www.w3.org/2000/svg"
   xmlns:sodipodi="http://sodipodi.sourceforge.net/DTD/sodipodi-0.dtd"
   xmlns:inkscape="http://www.inkscape.org/namespaces/inkscape"
   version="1.0"
   width="900"
   height="600"
   viewBox="0 0 238.125 158.75"
   id="svg2"
   xml:space="preserve"
   sodipodi:version="0.32"
   inkscape:version="0.48.4 r9939"
   sodipodi:docname="Chinese_Taipei_Volleyball_Flag.svg"
   inkscape:output_extension="org.inkscape.output.svg.inkscape"><metadata
     id="metadata25"><rdf:RDF><cc:Work
         rdf:about=""><dc:format>image/svg+xml</dc:format><dc:type
           rdf:resource="http://purl.org/dc/dcmitype/StillImage" /></cc:Work></rdf:RDF></metadata><sodipodi:namedview
     inkscape:window-height="1017"
     inkscape:window-width="1920"
     inkscape:pageshadow="2"
     inkscape:pageopacity="0.0"
     guidetolerance="10.0"
     gridtolerance="10.0"
     objecttolerance="10.0"
     borderopacity="1.0"
     bordercolor="#666666"
     pagecolor="#ffffff"
     id="base"
     showgrid="false"
     inkscape:zoom="1.0098387"
     inkscape:cx="419.03637"
     inkscape:cy="323.04338"
     inkscape:window-x="-8"
     inkscape:window-y="-8"
     inkscape:current-layer="svg2"
     inkscape:window-maximized="1" /><defs
     id="defs4"><inkscape:perspective
       sodipodi:type="inkscape:persp3d"
       inkscape:vp_x="0 : 300 : 1"
       inkscape:vp_y="0 : 1000 : 0"
       inkscape:vp_z="900 : 300 : 1"
       inkscape:persp3d-origin="450 : 200 : 1"
       id="perspective27" /><inkscape:perspective
       id="perspective9"
       inkscape:persp3d-origin="372.04724 : 350.78739 : 1"
       inkscape:vp_z="744.09448 : 526.18109 : 1"
       inkscape:vp_y="0 : 1000 : 0"
       inkscape:vp_x="0 : 526.18109 : 1"
       sodipodi:type="inkscape:persp3d" /></defs><rect
     width="238.125"
     height="158.75"
     x="0"
     y="0"
     id="rect10"
     style="fill:#ffffff" /><circle
     cx="119.062"
     cy="44.449902"
     r="20.6374"
     id="circle12"
     style="fill:#1b3379;fill-opacity:1" /><path
     d="M 86.8893,35.0923 C 90.7402,20.9385 103.7174,10.4775 119.0625,10.4775 C 134.4076,10.4775 147.386,20.9385 151.237,35.0923 C 165.8884,34.3808 179.8457,43.4905 184.5878,58.0847 C 189.3297,72.6786 183.3928,88.2529 171.1217,96.2889 C 176.3258,110.0033 171.9736,126.0945 159.5593,135.1143 C 147.1451,144.1336 130.4976,143.2989 119.0631,134.1117 C 107.6284,143.2985 90.9799,144.1336 78.5654,135.114 C 66.1514,126.0948 61.8011,110.003 67.0052,96.2889 C 54.7338,88.2529 48.7953,72.6786 53.5372,58.0844 C 58.279,43.4905 72.2382,34.3811 86.8893,35.0923 L 86.8893,35.0923 z M 119.0625,5.715 C 102.8195,5.715 88.8968,15.9712 83.4333,30.3368 C 68.0818,31.0934 54.0271,41.1648 49.0077,56.6128 C 43.9884,72.0608 49.4405,88.4714 61.415,98.1069 C 57.3913,112.9405 62.6256,129.42 75.7663,138.9672 C 88.907,148.5148 106.199,148.4001 119.0631,139.9892 C 131.9273,148.4001 149.218,148.5148 162.3587,138.9672 C 175.4994,129.42 180.7356,112.9392 176.7116,98.1056 C 188.6858,88.4701 194.1366,72.0608 189.1173,56.6128 C 184.0979,41.1645 170.0432,31.0934 154.6917,30.3368 C 149.2282,15.9709 135.3055,5.715 119.0625,5.715 L 119.0625,5.715 z"
     id="path24"
     style="fill:#1b3379;fill-opacity:1" /><path
     d="M 119.063,14.4463 C 104.3843,14.4463 92.1631,25.3111 90.0264,39.4094 C 75.9576,37.085 61.8479,45.3507 57.3121,59.3109 C 52.776,73.2714 59.332,88.2513 72.0803,94.6401 C 65.5223,107.302 69.0237,123.276 80.8989,131.9035 C 92.774,140.5315 109.0484,138.9253 119.0636,128.7755 C 129.0792,138.9253 145.3523,140.5315 157.2271,131.9035 C 169.1023,123.2754 172.6052,107.3017 166.047,94.6401 C 178.7949,88.251 185.35,73.2711 180.8139,59.3109 C 176.2778,45.3507 162.1693,37.085 148.1009,39.4094 C 145.9641,25.3111 133.7417,14.4463 119.063,14.4463 L 119.063,14.4463 z M 93.663,43.815 C 93.663,29.8253 105.0733,18.415 119.063,18.415 C 133.0527,18.415 144.463,29.8253 144.463,43.815 C 144.463,44.0192 144.4605,44.223 144.4557,44.4259 C 144.6475,44.3586 144.8392,44.2925 145.0335,44.2293 C 158.3387,39.9063 172.7161,47.2326 177.0391,60.5374 C 181.3625,73.8422 174.0365,88.2199 160.7314,92.543 C 160.5374,92.6062 160.3437,92.6655 160.1491,92.7237 C 160.2726,92.8853 160.3939,93.0488 160.5139,93.2139 C 168.7368,104.5318 166.2121,120.4697 154.8941,128.6926 C 143.5765,136.9155 127.6387,134.3911 119.4157,123.0732 C 119.2957,122.9081 119.1789,122.7414 119.0636,122.5744 C 118.9484,122.7417 118.8306,122.9084 118.7106,123.0735 C 110.4876,134.3914 94.5495,136.9155 83.2315,128.6926 C 71.9136,120.4697 69.3895,104.5318 77.6124,93.2139 C 77.7324,93.0488 77.8547,92.8856 77.9779,92.7243 C 77.7832,92.6662 77.5886,92.6065 77.3943,92.5433 C 64.0895,88.2202 56.7635,73.8422 61.0865,60.5374 C 65.4096,47.2323 79.7876,39.9066 93.0925,44.2297 C 93.2864,44.2928 93.4792,44.3589 93.6709,44.4262 C 93.6662,44.223 93.663,44.0192 93.663,43.815 L 93.663,43.815 z"
     id="path26"
     style="fill:#df0024;fill-opacity:1" /><path
     style="opacity:1;fill:#000000;fill-opacity:1;fill-rule:evenodd;stroke:#000000;stroke-width:0.26458333;stroke-linecap:square;stroke-linejoin:miter;stroke-miterlimit:4;stroke-dasharray:none;stroke-dashoffset:0;stroke-opacity:1"
     d="M 92.091125,110.62237 C 91.062847,110.62238 90.246774,111.00741 89.637263,111.77032 C 88.93654,112.64934 88.584108,113.85938 88.584108,115.41423 C 88.584108,116.88618 88.930159,118.05467 89.62673,118.92125 C 90.232088,119.67174 91.02196,120.04813 91.996346,120.04813 C 92.771697,120.04813 93.42449,119.81314 93.955219,119.34251 C 94.485936,118.87192 94.875101,118.12981 95.103153,117.10982 L 93.639268,116.54111 C 93.510722,117.21282 93.297612,117.70664 93.007378,118.01554 C 92.717129,118.32444 92.373322,118.47893 91.975278,118.47893 C 91.432104,118.47893 90.988295,118.23738 90.648295,117.75225 C 90.308295,117.26713 90.142786,116.44692 90.142786,115.29839 C 90.142786,114.19134 90.321071,113.39923 90.669363,112.91825 C 91.017642,112.4373 91.465947,112.19158 92.017401,112.19158 C 92.403,112.19158 92.73388,112.32849 93.017899,112.59178 C 93.301918,112.85507 93.491234,113.23578 93.586611,113.72919 L 95.082098,113.28686 C 94.895507,112.48663 94.59963,111.88178 94.197446,111.47543 C 93.633536,110.90324 92.928673,110.62238 92.091125,110.62237 z M 101.67487,110.78034 L 101.67487,112.31795 L 103.89702,112.31795 L 103.89702,119.89016 L 105.40304,119.89016 L 105.40304,112.31795 L 107.61468,112.31795 L 107.61468,110.78034 L 101.67487,110.78034 z M 113.6598,110.78034 L 116.33482,119.89016 L 117.94615,119.89016 L 120.62118,110.78034 L 119.02038,110.78034 L 117.18788,117.52056 L 115.30272,110.78034 L 113.6598,110.78034 z M 127.21394,110.78034 L 127.21394,119.89016 L 129.75205,119.89016 C 130.85496,119.89016 131.55569,119.85947 131.85837,119.78485 C 132.29372,119.67704 132.67651,119.38996 132.99578,118.93178 C 133.31503,118.47362 133.46969,117.91013 133.46971,117.24674 C 133.46969,116.69943 133.35193,116.23804 133.1011,115.85657 C 132.85023,115.47511 132.50212,115.2032 132.05846,115.04564 C 132.36943,114.87565 132.62186,114.62082 132.81675,114.2663 C 133.01162,113.91179 133.10108,113.51575 133.1011,113.07623 C 133.10108,112.59941 132.99213,112.1687 132.76409,111.79137 C 132.53603,111.41408 132.25326,111.15079 131.92156,111.00151 C 131.58985,110.85224 131.02173,110.78036 130.20492,110.78034 L 127.21394,110.78034 z M 142.71643,110.78034 L 139.80971,119.89016 L 141.41051,119.89016 L 142.03188,117.82597 L 145.01231,117.82597 L 145.66528,119.89016 L 147.3082,119.89016 L 144.31723,110.78034 L 142.71643,110.78034 z M 128.70943,112.29689 L 129.58355,112.29689 C 130.37964,112.29689 130.85845,112.31864 131.02638,112.36008 C 131.19429,112.40154 131.34,112.49757 131.45818,112.6655 C 131.57633,112.83343 131.6372,113.05948 131.63721,113.32898 C 131.6372,113.63167 131.56116,113.86892 131.41604,114.04513 C 131.27092,114.22135 131.07281,114.33015 130.81574,114.37161 C 130.67476,114.39235 130.30699,114.4032 129.70993,114.4032 L 128.70943,114.4032 L 128.70943,112.29689 z M 143.5063,112.90772 L 144.52786,116.28836 L 142.49527,116.28836 L 143.5063,112.90772 z M 128.70943,115.91976 L 129.93109,115.91976 C 130.57791,115.91976 131.00656,115.95252 131.21595,116.02507 C 131.42533,116.09763 131.595,116.23246 131.72146,116.42527 C 131.84791,116.61807 131.91102,116.86395 131.91103,117.16248 C 131.91102,117.45273 131.85016,117.68998 131.73199,117.87863 C 131.61381,118.06728 131.47434,118.19351 131.30019,118.25777 C 131.12605,118.32203 130.72377,118.35255 130.11012,118.35255 L 128.70943,118.35255 L 128.70943,115.91976 z M 96.377479,118.14191 L 96.377479,119.89016 L 97.820309,119.89016 L 97.820309,118.14191 L 96.377479,118.14191 z M 108.59411,118.14191 L 108.59411,119.89016 L 110.0264,119.89016 L 110.0264,118.14191 L 108.59411,118.14191 z M 121.37945,118.14191 L 121.37945,119.89016 L 122.82228,119.89016 L 122.82228,118.14191 L 121.37945,118.14191 z M 134.74402,118.14191 L 134.74402,119.89016 L 136.17632,119.89016 L 136.17632,118.14191 L 134.74402,118.14191 z M 148.09807,118.14191 L 148.09807,119.89016 L 149.54089,119.89016 L 149.54089,118.14191 L 148.09807,118.14191 z"
     id="rect2408" /><g
     transform="matrix(0.8610169,0,0,0.8610169,52.6316,13.948564)"
     id="g3215"
     style="fill:#1b3379;fill-opacity:1"><path
       style="fill:#1b3379;fill-opacity:1;fill-rule:evenodd;stroke:none;stroke-width:0.78177512;stroke-linecap:square;stroke-linejoin:miter;stroke-miterlimit:4;stroke-dashoffset:0;stroke-opacity:1"
       d="M 66.75,62.96875 L 66.75,74.15625 L 66.75,74.1875 L 66.84375,74.25 L 70.71875,78.125 L 65,78.125 L 65,69.125 L 60.3125,69.125 L 60.3125,78.125 L 60.3125,82.84375 L 65,82.84375 L 70.5,82.84375 L 76.59375,88.9375 L 90.25,88.9375 L 71.46875,70.125 L 71.46875,62.96875 L 66.75,62.96875 z"
       id="rect3172" /><path
       style="fill:#1b3379;fill-opacity:1;fill-rule:evenodd;stroke:none;stroke-width:0.78177512;stroke-linecap:square;stroke-linejoin:miter;stroke-miterlimit:4;stroke-dashoffset:0;stroke-opacity:1"
       d="M 76.8125,90.09375 L 76.8125,101.3125 L 78.28125,101.3125 L 81.34375,101.3125 L 86.0625,101.3125 L 87.28125,101.3125 L 95,109.0625 L 98.34375,105.71875 L 90.59375,98 L 90.59375,90.09375 L 85.96875,90.09375 L 85.96875,96.59375 L 81.4375,96.59375 L 81.4375,90.09375 L 76.8125,90.09375 z"
       id="rect2384" /><path
       sodipodi:type="arc"
       style="opacity:1;fill:#1b3379;fill-opacity:1;fill-rule:nonzero;stroke:none;stroke-width:1;stroke-linecap:butt;stroke-linejoin:miter;marker:none;marker-start:none;marker-mid:none;marker-end:none;stroke-miterlimit:4;stroke-dasharray:none;stroke-dashoffset:0;stroke-opacity:1;visibility:visible;display:inline;overflow:visible;enable-background:accumulate"
       id="path3206"
       sodipodi:cx="46.1875"
       sodipodi:cy="59.6875"
       sodipodi:rx="3.1875"
       sodipodi:ry="3.1875"
       d="m 49.375,59.6875 c 0,1.760408 -1.427092,3.1875 -3.1875,3.1875 C 44.427092,62.875 43,61.447908 43,59.6875 43,57.927092 44.427092,56.5 46.1875,56.5 c 1.760408,0 3.1875,1.427092 3.1875,3.1875 z"
       transform="matrix(1.1960784,0,0,1.1960784,21.193627,-2.9534314)" /><path
       sodipodi:type="arc"
       style="opacity:1;fill:#1b3379;fill-opacity:1;fill-rule:nonzero;stroke:none;stroke-width:1;stroke-linecap:butt;stroke-linejoin:miter;marker:none;marker-start:none;marker-mid:none;marker-end:none;stroke-miterlimit:4;stroke-dasharray:none;stroke-dashoffset:0;stroke-opacity:1;visibility:visible;display:inline;overflow:visible;enable-background:accumulate"
       id="path3208"
       sodipodi:cx="46.1875"
       sodipodi:cy="59.6875"
       sodipodi:rx="3.1875"
       sodipodi:ry="3.1875"
       d="m 49.375,59.6875 c 0,1.760408 -1.427092,3.1875 -3.1875,3.1875 C 44.427092,62.875 43,61.447908 43,59.6875 43,57.927092 44.427092,56.5 46.1875,56.5 c 1.760408,0 3.1875,1.427092 3.1875,3.1875 z"
       transform="matrix(0.7529412,0,0,0.7529412,28.436029,20.721322)" /></g><g
     id="g3010"
     transform="matrix(0.26458333,0,0,0.26458333,100.56981,25.999901)"><path
       id="path3012"
       d="m 104.66929,69.555119 c 0,19.204725 -15.555119,34.795281 -34.759843,34.795281 -19.204724,0 -34.795275,-15.590556 -34.795275,-34.795281 0,-19.204725 15.590551,-34.759843 34.795275,-34.759843 19.204724,0 34.759843,15.555118 34.759843,34.759843 z"
       style="fill:#ffffff;fill-opacity:1;fill-rule:nonzero;stroke:none"
       inkscape:connector-curvature="0" /><path
       id="path3014"
       d="m 69.909447,0 8.07874,31.074804 c -2.338583,-0.673229 -5.385827,-1.027559 -8.07874,-1.027559 -2.728347,0 -5.740158,0.35433 -8.114173,1.027559 L 69.909447,0 z M 82.06299,32.102363 104.66929,9.1417324 96.236218,40.181103 c -4.03937,-3.366142 -8.787402,-6.413386 -14.173228,-8.07874 z m 17.220472,11.125984 31.039368,-8.433071 -22.96063,22.6063 c -1.66535,-5.385827 -4.35827,-10.133859 -8.078738,-14.173229 z m 9.460628,18.248032 31.03937,8.07874 -31.03937,8.468504 c 0.3189,-2.728346 0.67323,-5.42126 0.67323,-8.468504 0,-2.692913 -0.35433,-5.385827 -0.67323,-8.07874 z m -1.38189,20.232284 22.96063,22.960627 -31.039368,-8.433068 c 3.720468,-4.03937 6.413388,-9.106299 8.078738,-14.527559 z m -11.125982,17.220472 8.433072,31.074805 -22.6063,-22.6063 c 5.385826,-1.70079 10.133858,-4.74803 14.173228,-8.468505 z m -18.248031,9.460635 -8.07874,31.0748 -8.114173,-31.0748 c 2.374015,0.67322 5.385826,0.67322 8.114173,0.67322 2.692913,0 5.740157,0 8.07874,-0.67322 z m -20.232283,-0.99213 -22.641732,22.6063 8.433071,-31.074805 c 4.074803,3.720475 8.787401,6.767715 14.208661,8.468505 z M 40.535432,96.236222 9.4606296,104.66929 32.421259,81.708663 c 1.665354,5.42126 4.393701,10.488189 8.114173,14.527559 z M 31.074802,78.023623 0,69.555119 31.074802,61.476379 c -0.35433,2.692913 -0.673228,5.385827 -0.673228,8.07874 0,3.047244 0.318898,5.740158 0.673228,8.468504 z M 32.421259,57.401576 9.4606296,34.795276 40.535432,43.228347 c -3.720472,4.03937 -6.448819,8.787402 -8.114173,14.173229 z M 43.547243,40.181103 35.114172,9.1417324 57.755904,32.102363 c -5.42126,1.665354 -10.133858,4.712598 -14.208661,8.07874 z"
       style="fill:#ffffff;fill-opacity:1;fill-rule:nonzero;stroke:none"
       inkscape:connector-curvature="0" /></g></svg>